<svg height="64" viewBox="0 0 64 64" width="64" xmlns="http://www.w3.org/2000/svg"><rect fill="#f4f1ea" height="64" rx="14" width="64"/><circle cx="32" cy="30" fill="#ff4f1f" r="6"/><path d="m22.65 20.97a13 13 0 0 1 18.7 0" fill="none" opacity=".65" stroke="#ff4f1f" stroke-linecap="round" stroke-width="3.5"/><path d="m17.25 15.76a20.5 20.5 0 0 1 29.5 0" fill="none" opacity=".3" stroke="#ff4f1f" stroke-linecap="round" stroke-width="3.5"/><path d="m32 43.8 13.5 1.2q4 .6 3.7 2.2c-2.7 3-11.7 4.2-17.2 4.2s-14.5-1.2-17.2-4.2q-.3-1.6 3.7-2.2z" fill="#8da3b8"/><path d="m32 54.4 5.2.6q1.6.4 1.4 1.2c-1.1 1.5-4.1 2-6.6 2s-5.5-.5-6.6-2q-.2-.8 1.4-1.2z" fill="#8da3b8"/><path d="m27.5 43.5a4.5 4.5 0 0 1 9 0l-2.2 12.7a2.3 2.3 0 0 1 -4.6 0z" fill="#0b1220"/></svg>